<?xml version="1.0" encoding="UTF-8"?>
<svg id="Calque_1" data-name="Calque 1" xmlns="http://www.w3.org/2000/svg" viewBox="0 0 753.18 300.17">
  <path d="M261.55,54.23c-14.09,11.27-27.59,22.09-41.12,32.88-7.68,6.13-15.4,12.21-23.09,18.34-26.5,21.11-26.05,66.33.68,87.25,21.37,16.73,42.5,33.75,64.05,50.88-11.23,15.41-24.76,28.02-41.1,37.46-28.71,16.6-59.8,22.3-92.37,17.48-62.94-9.31-104.13-45.41-122.35-105.76C-15.12,121.96,19.53,40.95,91.82,11.25,148.29-11.95,211.79,1.36,253.92,45.43c2.52,2.63,4.78,5.5,7.62,8.79ZM80.62,180.97c18.2.16,32.88-13.93,32.93-31.59.04-17.96-14.31-32.7-31.95-32.81-17.65-.11-32.65,14.3-32.77,31.48-.13,17.91,14.23,32.77,31.8,32.92ZM146.31,181.07c-18.52.52-32.06,14.93-31.46,33.51.55,16.99,15.61,30.7,33.33,30.33,16.79-.35,31.24-15.49,30.89-32.35-.37-17.62-15.3-31.98-32.76-31.49ZM146.96,53.39c-17.82-.02-32.12,14.14-32.15,31.82-.02,17.39,14.58,31.71,32.36,31.75,17.47.04,32.04-14.37,31.92-31.57-.13-17.67-14.5-31.98-32.13-32ZM159.3,148.85c.05-6.4-5.17-11.76-11.61-11.92-7.02-.17-12.6,5.05-12.73,11.92-.12,6.23,5.7,11.95,12.22,12.01,6.48.06,12.07-5.48,12.12-12.01Z"/>
  <path d="M302.61,134.2c-2.2,0-4.04-.2-5.82.03-6.68.86-11-.56-14.74-7.53-6.46-12.04-28.03-11.16-35.21,1-7.64,12.93-7.81,26.67-1.25,40.11,4.12,8.43,12.03,11.32,20.88,10.88,8.88-.44,15.23-5.08,18.78-13.44.51-1.21,1.97-2.75,3.08-2.83,4.62-.32,9.28-.13,14.62-.13-1.81,10.9-6.39,19.9-15.51,25.69-15,9.51-45.83,9.07-58.02-14.2-10.19-19.46-8.07-47.92,12.03-62.7,17.73-13.03,55.32-9.71,61.17,23.11Z"/>
  <path d="M486.31,191.42c-9.47-28.28-18.89-56.42-28.62-85.48,5.24,0,9.85-.42,14.3.24,1.44.21,2.95,3.1,3.58,5.05,6.55,20.04,12.92,40.14,19.35,60.22.1.3.33.56.8,1.33.62-1.16,1.25-2.01,1.55-2.96,6.27-19.96,12.58-39.9,18.66-59.92.95-3.14,2.3-4.29,5.53-4.06,3.97.27,7.97.06,12.55.06-3.76,10.72-7.43,21.01-10.98,31.33-5.78,16.81-11.53,33.62-17.19,50.47-.9,2.69-2.1,4-5.2,3.79-4.63-.31-9.31-.08-14.33-.08Z"/>
  <path d="M460.35,173.06c-1.57,10.29-9.33,17.51-20.11,19.29-14.6,2.42-26.93-2.77-32.61-13.72-6.81-13.15-4.71-32.26,5.01-41.51,8.92-8.49,19.7-10.07,31.08-6.27,11.7,3.9,16.05,13.69,18.09,24.82.52,2.87.32,5.87.48,9.46h-42.74c-1.09,6.22,1.52,11.87,6.24,14.4,5.21,2.8,15.03,2.34,18.15-2.23,4.71-6.9,10.68-3.42,16.42-4.24ZM419.05,154.42h26.86c.54-8.33-4.14-13.41-12.31-13.78-8.39-.38-14.18,4.93-14.55,13.78Z"/>
  <path d="M587.67,164.76h-43.99c-2.4,11.01,7.63,18.92,19.08,15.68,1.72-.49,3.46-1.31,4.86-2.41,7.11-5.61,7.45-5.77,17-4.61-.03,4.58-2.32,8.16-5.38,11.16-9.17,9.01-20.3,9.99-32.01,6.85-11.28-3.03-17.09-11.54-18.63-22.4-.91-6.38-.48-13.38,1.17-19.62,3.52-13.23,14.08-20.39,27.94-20.44,13.32-.05,22.93,6.9,27.03,20.13,1.45,4.68,1.85,9.68,2.93,15.67ZM570.67,154.46c.19-9.1-5.11-14.33-13.84-13.94-8.44.37-13.97,6.05-13.37,13.94h27.21Z"/>
  <path d="M753.18,165.17h-44.17c.37,6.63,2.22,11.72,7.92,14.56,5.06,2.53,14.33,1.87,17.28-2.34,3.34-4.76,7.48-4.57,12.08-4.42,1.44.04,2.89.18,4.34.27-.98,9.51-9.5,17.35-20.42,19.08-15,2.38-27.18-3.18-32.84-15-6.59-13.78-3.46-32.26,7.05-41.51,16.69-14.71,42.55-5.69,47.28,16.58.82,3.84.93,7.83,1.48,12.78ZM709.47,154.26h27.26c-.37-9.15-4.91-13.72-13.19-13.75-8.21-.03-13.46,4.95-14.07,13.75Z"/>
  <path d="M394.73,191.22h-14.42c-.1-2.11-.23-4.05-.27-5.98-.24-11.32-.28-22.66-.74-33.97-.26-6.44-3.35-9.51-9.33-10.39-6.18-.91-12.02,2-13.8,7.38-.92,2.78-1.27,5.85-1.3,8.8-.14,11.29-.06,22.57-.06,34.11h-14.85v-59.74c10.17-2.42,13.31-1.25,14.39,5.92,1.2-.93,2.2-1.59,3.08-2.4,5.4-5,11.92-6.64,18.96-5.7,11.94,1.58,17.58,7.68,18.21,21.08.64,13.44.14,26.94.14,40.9Z"/>
  <path d="M635.76,173.07h12.38c4.13,8.67,9.3,11.09,18.75,8.63,3.53-.92,5.95-3.07,6.31-6.85.38-3.95-1.83-6.38-5.38-7.36-6.72-1.84-13.62-3.08-20.26-5.16-8.16-2.56-11.7-8.21-11.29-16.67.29-6.08,3.43-10.4,8.68-13.03,10.47-5.25,21.22-5.18,31.77-.39,5.91,2.69,8.84,7.78,9.12,14.75h-13.43c-3.81-7.48-6.88-9.08-15.38-7.55-3.56.64-6.09,2.38-6.34,6.51-.26,4.26,2.21,6.04,5.78,6.82,6,1.31,12.09,2.23,18.04,3.74,6.86,1.74,12.32,5.36,13.23,13.12,1.07,9.14-2.71,16.68-10.55,20.23-10.17,4.6-20.66,4.85-30.97.4-7.26-3.14-11.05-9.67-10.45-17.2Z"/>
  <path d="M631.6,129.99v13.14c-3.16.39-6.14.53-9.01,1.14-7.01,1.5-11.07,5.32-11.68,12.37-.8,9.25-.72,18.58-1,27.87-.06,2.12,0,4.24,0,6.63h-14.2v-60.4c3.82,0,7.74-.15,11.63.12.86.06,2.02,1.49,2.31,2.5.45,1.53.27,3.25.43,6.24,5.66-7.73,12.33-11.18,21.52-9.62Z"/>
  <path d="M326.71,131.1v59.94h-14.15v-59.94h14.15Z"/>
  <path d="M326.63,120.26h-14.84v-13.33h14.84v13.33Z"/>
</svg>